<svg version="1.1" xmlns="http://www.w3.org/2000/svg" viewBox="0 0 250 250"><desc>Created with Snap</desc><defs></defs><g transform="matrix(0.0243,0,0,0.0243,6.2862,131.4725)"><rect x="-259.07199783325194" y="-1701.7601196289063" width="10303.2328125" height="2870.0162109375" fill="#000000" style=""></rect><g transform="matrix(70.488,0,0,70.488,7481.3446,-1394.5601)"><g display="none"><rect x="-69.333" y="-18.667" display="inline" fill="#e0aaff" width="473.333" height="236" style=""></rect></g><g display="none"><g display="inline"><g><polygon fill="#e0aaff" points="32,15.976 15.976,32 0,16.024    " style=""></polygon></g><g><polygon points="23.347,15.989 15.989,23.347 8.653,16.011    " fill="#e0aaff" style=""></polygon></g><g><polygon fill="#e0aaff" points="0,16.024 16.024,0 32,15.976    " style=""></polygon></g><g><polygon fill="#e0aaff" points="8.653,16.011 16.011,8.653 23.347,15.989    " style=""></polygon></g></g></g><g display="none"><g display="inline"><path fill="#e0aaff" d="M16,1c8.271,0,15,6.729,15,15s-6.729,15-15,15S1,24.271,1,16S7.729,1,16,1 M16,0C7.163,0,0,7.163,0,16    s7.163,16,16,16s16-7.163,16-16S24.837,0,16,0L16,0z" style=""></path></g><g display="inline"><path fill="#e0aaff" d="M13.034,6.153l2.259,2.259L16,9.119l0.707-0.707l2.259-2.259l0.744,0.744l-2.259,2.259l-0.707,0.707    l0.707,0.707l2.259,2.259l-0.744,0.744l-2.259-2.259L16,10.607l-0.707,0.707l-2.259,2.259l-0.744-0.744l2.259-2.259l0.707-0.707    l-0.707-0.707L12.29,6.897L13.034,6.153 M18.966,4.738L16,7.705l-2.966-2.966l-2.158,2.158l2.966,2.966l-2.966,2.966l2.158,2.158    L16,12.021l2.966,2.966l2.158-2.158l-2.966-2.966l2.966-2.966L18.966,4.738L18.966,4.738z" style=""></path></g><g display="inline"><path fill="#e0aaff" d="M13.034,18.427l2.259,2.259L16,21.393l0.707-0.707l2.259-2.259l0.744,0.744l-2.259,2.259l-0.707,0.707    l0.707,0.707l2.259,2.259l-0.744,0.744l-2.259-2.259L16,22.881l-0.707,0.707l-2.259,2.259l-0.744-0.744l2.259-2.259l0.707-0.707    l-0.707-0.707l-2.259-2.259L13.034,18.427 M18.966,17.013L16,19.979l-2.966-2.966l-2.158,2.158l2.966,2.966l-2.966,2.966    l2.158,2.158L16,24.295l2.966,2.966l2.158-2.158l-2.966-2.966l2.966-2.966L18.966,17.013L18.966,17.013z" style=""></path></g></g><g display="none"><g display="inline"><rect x="2" y="2" fill="#e0aaff" width="28" height="28" style=""></rect></g><g display="inline"><g><path fill="#e0aaff" d="M16,31.5C7.453,31.5,0.5,24.547,0.5,16S7.453,0.5,16,0.5S31.5,7.453,31.5,16S24.547,31.5,16,31.5z" style=""></path></g><g><g><path d="M16,1c8.271,0,15,6.729,15,15s-6.729,15-15,15S1,24.271,1,16S7.729,1,16,1 M16,0C7.163,0,0,7.163,0,16s7.163,16,16,16      s16-7.163,16-16S24.837,0,16,0L16,0z" fill="#e0aaff" style=""></path></g></g></g><g display="inline"><g><polygon fill="#e0aaff" points="16,11.314 13.034,14.28 11.582,12.829 14.549,9.863 11.582,6.896 13.034,5.445 16,8.412      18.966,5.445 20.418,6.896 17.451,9.863 20.418,12.829 18.966,14.28    " style=""></polygon></g><g><path d="M13.034,6.153l2.259,2.259L16,9.119l0.707-0.707l2.259-2.259l0.744,0.744l-2.259,2.259l-0.707,0.707l0.707,0.707     l2.259,2.259l-0.744,0.744l-2.259-2.259L16,10.607l-0.707,0.707l-2.259,2.259l-0.744-0.744l2.259-2.259l0.707-0.707l-0.707-0.707     L12.29,6.897L13.034,6.153 M18.966,4.738L16,7.705l-2.966-2.966l-2.158,2.158l2.966,2.966l-2.966,2.966l2.158,2.158L16,12.021     l2.966,2.966l2.158-2.158l-2.966-2.966l2.966-2.966L18.966,4.738L18.966,4.738z" fill="#e0aaff" style=""></path></g></g><g display="inline"><g><polygon fill="#e0aaff" points="16,23.589 13.034,26.555 11.582,25.104 14.549,22.137 11.582,19.171 13.034,17.72 16,20.686      18.966,17.72 20.418,19.171 17.451,22.137 20.418,25.104 18.966,26.555    " style=""></polygon></g><g><path d="M13.034,18.427l2.259,2.259L16,21.393l0.707-0.707l2.259-2.259l0.744,0.744l-2.259,2.259l-0.707,0.707l0.707,0.707     l2.259,2.259l-0.744,0.744l-2.259-2.259L16,22.881l-0.707,0.707l-2.259,2.259l-0.744-0.744l2.259-2.259l0.707-0.707l-0.707-0.707     l-2.259-2.259L13.034,18.427 M18.966,17.013L16,19.979l-2.966-2.966l-2.158,2.158l2.966,2.966l-2.966,2.966l2.158,2.158     L16,24.295l2.966,2.966l2.158-2.158l-2.966-2.966l2.966-2.966L18.966,17.013L18.966,17.013z" fill="#e0aaff" style=""></path></g></g></g><g><g><path d="M0,16.024L15.976,32L32,15.976L16.024,0L0,16.024z M15.989,23.347l-7.336-7.336l14.694-0.022L15.989,23.347z" fill="#e0aaff" style=""></path></g></g><desc>Created with Snap</desc><defs></defs></g><g><g transform="matrix(1.024,0,0,-1.024,0,0)"><path d="M532 121Q539 131 548 131Q557 131 567 122Q578 114 578 106Q578 98 572 91Q488 -10 341 -10Q211 -10 129 76Q47 163 47 303Q47 443 129 530Q211 618 335 618Q460 618 543 570Q558 562 558 549L558 463Q558 453 550 446Q542 440 531 440Q520 440 512 446Q504 453 504 463L504 537Q430 571 341 571Q234 571 167 496Q101 422 101 304Q101 186 167 111Q234 37 348 37Q463 37 532 121ZM731 242L731 13Q731 3 723 -4Q715 -10 704 -10Q693 -10 685 -4Q677 3 677 13L677 703L611 703Q601 703 594 709Q588 716 588 726Q588 736 594 743Q601 750 611 750L705 750Q715 750 723 743Q731 736 731 726L731 307Q793 386 878 386Q934 386 967 357Q1001 329 1001 278L1001 65Q1001 47 1028 47L1067 47Q1077 47 1083 40Q1090 33 1090 23Q1090 13 1083 6Q1077 0 1067 0L1028 0Q947 0 947 65L947 278Q947 340 878 340Q786 340 731 242ZM1240 351L1240 13Q1240 3 1232 -4Q1224 -10 1213 -10Q1202 -10 1194 -4Q1186 3 1186 13L1186 327L1120 327Q1110 327 1103 333Q1097 340 1097 350Q1097 360 1103 367Q1110 374 1120 374L1217 374Q1240 374 1240 351ZM1184 524Q1175 534 1175 548Q1175 562 1184 572Q1193 582 1209 582Q1225 582 1234 572Q1244 562 1244 548Q1244 534 1234 524Q1225 514 1209 514Q1193 514 1184 524ZM1653 96Q1661 108 1669 108Q1678 108 1687 104Q1701 98 1701 87Q1701 77 1698 72Q1647 -10 1536 -10Q1451 -10 1400 47Q1349 105 1349 189Q1349 273 1402 328Q1456 384 1535 384Q1615 384 1674 347Q1686 339 1686 328L1686 244Q1686 234 1678 227Q1670 221 1659 221Q1648 221 1640 227Q1632 234 1632 244L1632 315Q1592 338 1536 338Q1480 338 1441 296Q1402 254 1402 187Q1402 121 1439 78Q1477 36 1536 36Q1614 36 1653 96ZM1970 36Q2031 36 2069 78Q2108 120 2108 186Q2108 253 2069 295Q2031 338 1970 338Q1909 338 1870 295Q1832 253 1832 186Q1832 120 1870 78Q1909 36 1970 36ZM1831 45Q1778 101 1778 187Q1778 273 1832 328Q1886 384 1970 384Q2054 384 2107 328Q2161 273 2161 186Q2161 100 2107 45Q2054 -10 1969 -10Q1885 -10 1831 45ZM2348 303Q2400 384 2486 384Q2573 384 2618 328Q2664 273 2664 188Q2664 103 2617 46Q2571 -10 2488 -10Q2406 -10 2352 47L2352 -206Q2352 -216 2344 -223Q2336 -229 2325 -229Q2314 -229 2306 -223Q2298 -216 2298 -206L2298 308Q2298 327 2279 327L2232 327Q2222 327 2215 333Q2209 340 2209 350Q2209 360 2215 367Q2222 374 2232 374L2286 374Q2350 374 2348 303ZM2352 243L2352 96Q2416 36 2480 36Q2544 36 2577 78Q2611 120 2611 189Q2611 258 2578 298Q2545 338 2487 338Q2402 338 2352 243ZM3053 220Q3050 274 3021 306Q2993 338 2939 338Q2886 338 2850 305Q2814 273 2805 220L3053 220ZM3055 96Q3062 108 3071 108Q3080 108 3089 103Q3098 99 3101 89Q3105 80 3100 72Q3049 -10 2938 -10Q2850 -10 2799 46Q2749 103 2749 189Q2749 275 2801 329Q2853 384 2938 384Q3023 384 3064 333Q3106 282 3106 197Q3106 174 3080 174L2803 173Q2807 111 2843 73Q2880 36 2938 36Q3016 36 3055 96ZM3493 220Q3490 274 3461 306Q3433 338 3379 338Q3326 338 3290 305Q3254 273 3245 220L3493 220ZM3495 96Q3502 108 3511 108Q3520 108 3529 103Q3538 99 3541 89Q3545 80 3540 72Q3489 -10 3378 -10Q3290 -10 3239 46Q3189 103 3189 189Q3189 275 3241 329Q3293 384 3378 384Q3463 384 3504 333Q3546 282 3546 197Q3546 174 3520 174L3243 173Q3247 111 3283 73Q3320 36 3378 36Q3456 36 3495 96ZM4398 584L4129 10Q4121 -5 4104 -5Q4087 -5 4080 9L3809 585Q3807 590 3807 594Q3807 610 3823 616Q3829 618 3834 618Q3851 618 3857 605L4104 75L4350 605Q4356 618 4367 618Q4391 618 4398 602Q4400 598 4400 593Q4400 588 4398 584ZM4747 220Q4744 274 4715 306Q4687 338 4633 338Q4580 338 4544 305Q4508 273 4499 220L4747 220ZM4749 96Q4756 108 4765 108Q4774 108 4783 103Q4792 99 4795 89Q4799 80 4794 72Q4743 -10 4632 -10Q4544 -10 4493 46Q4443 103 4443 189Q4443 275 4495 329Q4547 384 4632 384Q4717 384 4758 333Q4800 282 4800 197Q4800 174 4774 174L4497 173Q4501 111 4537 73Q4574 36 4632 36Q4710 36 4749 96ZM4917 327L4870 327Q4860 327 4853 333Q4847 340 4847 350Q4847 360 4853 367Q4860 374 4870 374L4924 374Q4986 374 4986 306Q5046 384 5137 384Q5191 384 5225 356Q5260 329 5260 276L5260 66Q5260 47 5287 47L5326 47Q5336 47 5342 40Q5349 33 5349 23Q5349 13 5342 6Q5336 0 5326 0L5287 0Q5206 0 5206 65L5206 276Q5206 306 5187 322Q5169 338 5136 338Q5044 338 4990 242L4990 13Q4990 3 4982 -4Q4974 -10 4963 -10Q4952 -10 4944 -4Q4936 3 4936 13L4936 308Q4936 327 4917 327ZM5570 338Q5513 338 5479 297Q5445 256 5445 186Q5445 116 5478 76Q5512 36 5570 36Q5654 36 5704 131L5704 278Q5678 303 5641 320Q5605 338 5570 338ZM5704 331L5704 703L5638 703Q5628 703 5621 709Q5615 716 5615 726Q5615 736 5621 743Q5628 750 5638 750L5731 750Q5742 750 5750 743Q5758 736 5758 726L5758 66Q5758 47 5778 47L5824 47Q5834 47 5840 40Q5847 34 5847 24Q5847 14 5840 7Q5834 0 5824 0L5771 0Q5706 0 5708 71Q5686 37 5650 13Q5615 -10 5570 -10Q5481 -10 5436 47Q5392 104 5392 188Q5392 272 5438 328Q5485 384 5566 384Q5647 384 5704 331ZM6005 351L6005 13Q6005 3 5997 -4Q5989 -10 5978 -10Q5967 -10 5959 -4Q5951 3 5951 13L5951 327L5885 327Q5875 327 5868 333Q5862 340 5862 350Q5862 360 5868 367Q5875 374 5885 374L5982 374Q6005 374 6005 351ZM5949 524Q5940 534 5940 548Q5940 562 5949 572Q5958 582 5974 582Q5990 582 5999 572Q6009 562 6009 548Q6009 534 5999 524Q5990 514 5974 514Q5958 514 5949 524ZM6148 327L6101 327Q6091 327 6084 333Q6078 340 6078 350Q6078 360 6084 367Q6091 374 6101 374L6155 374Q6217 374 6217 306Q6277 384 6368 384Q6422 384 6456 356Q6491 329 6491 276L6491 66Q6491 47 6518 47L6557 47Q6567 47 6573 40Q6580 33 6580 23Q6580 13 6573 6Q6567 0 6557 0L6518 0Q6437 0 6437 65L6437 276Q6437 306 6418 322Q6400 338 6367 338Q6275 338 6221 242L6221 13Q6221 3 6213 -4Q6205 -10 6194 -10Q6183 -10 6175 -4Q6167 3 6167 13L6167 308Q6167 327 6148 327ZM6687 -11Q6649 -33 6649 -77Q6649 -120 6685 -145Q6722 -170 6786 -170Q6850 -170 6901 -148Q6952 -126 6952 -88Q6952 -47 6880 -39Q6855 -37 6721 -19Q6699 -15 6687 -11ZM6900 241Q6900 285 6870 312Q6841 340 6794 340Q6748 340 6718 312Q6689 285 6689 241Q6689 197 6718 169Q6748 142 6794 142Q6841 142 6870 169Q6900 197 6900 241ZM6930 514Q6946 514 6952 497Q6966 462 6966 434Q6966 376 6918 336Q6954 299 6954 237Q6954 175 6907 135Q6861 96 6794 96Q6764 96 6737 104Q6714 97 6696 82Q6679 68 6679 54Q6679 35 6729 26Q6751 23 6888 7Q7006 -8 7006 -88Q7006 -150 6935 -183Q6865 -216 6785 -216Q6706 -216 6650 -182Q6595 -147 6595 -85Q6595 -23 6648 9Q6626 22 6626 54Q6626 98 6695 125Q6636 170 6636 237Q6636 305 6680 345Q6724 386 6786 386Q6849 386 6885 363Q6912 390 6912 432Q6912 453 6905 471Q6893 501 6917 511Q6924 514 6930 514Z" fill="#ffffff" style=""></path></g></g></g></svg>