<svg version="1.1" xmlns="http://www.w3.org/2000/svg" viewBox="0 0 250 250"><desc>Created with Snap</desc><defs><linearGradient x1="-241.66399688720702" y1="-4795.648229980468" x2="7763.968424987793" y2="-4795.648229980468" gradientUnits="userSpaceOnUse" id="linearGradientSl7zosdghx6"><stop offset="0%" stop-color="#0560af"></stop><stop offset="100%" stop-color="#bbe5e8"></stop></linearGradient></defs><g transform="matrix(0.0312,0,0,0.0312,7.5467,187.7758)"><rect x="-241.66399688720702" y="-4795.648229980468" width="8005.632421875" height="5570.816247558593" fill="url('#linearGradientSl7zosdghx6')"></rect><g transform="matrix(35.7626,0,0,35.7626,1973.0241,-4667.2262)"><g transform="translate(0,-952.36218)"><path style="" d="m 45.719885,957.36164 3.18651,38.66594 c -0.0104,0.002 -0.0207,0.005 -0.0312,0.007 -0.004,7.7e-4 -0.008,0.002 -0.0117,0.003 -0.0463,0.009 -0.093,0.0154 -0.13911,0.0247 -0.004,7.6e-4 -0.008,0.002 -0.0116,0.003 -0.0493,0.01 -0.0979,0.0214 -0.14692,0.0325 -0.006,9.5e-4 -0.0104,0.003 -0.0156,0.004 -0.2469,0.0566 -0.49069,0.12668 -0.72935,0.21192 -0.0121,0.005 -0.0243,0.009 -0.0364,0.013 -0.0131,0.005 -0.026,0.009 -0.039,0.0143 l -16.53063,-35.06206 -7.4261,4.25388 22.0885,31.88727 c -0.0888,0.0738 -0.17625,0.14988 -0.26131,0.22881 -0.007,0.007 -0.0138,0.013 -0.0208,0.0195 -0.0278,0.026 -0.0546,0.0528 -0.082,0.0793 -0.0108,0.0104 -0.0218,0.0207 -0.0325,0.0312 -0.027,0.0265 -0.054,0.0535 -0.0806,0.0806 -0.12959,0.13168 -0.25391,0.2685 -0.37052,0.40953 l -31.84697,-22.10018 -4.30459,7.3975 35.07899,16.57354 c -0.003,0.01 -0.006,0.016 -0.009,0.025 -0.0102,0.028 -0.0201,0.055 -0.0299,0.083 -0.004,0.012 -0.008,0.023 -0.0116,0.035 -0.01,0.029 -0.0205,0.057 -0.0299,0.086 -0.008,0.023 -0.0149,0.046 -0.0221,0.069 -0.0107,0.034 -0.0211,0.068 -0.0312,0.1014 -0.005,0.015 -0.009,0.029 -0.013,0.044 -0.009,0.032 -0.0187,0.063 -0.0273,0.095 -0.005,0.019 -0.009,0.037 -0.0143,0.056 -0.007,0.023 -0.0123,0.047 -0.0182,0.07 -0.004,0.015 -0.007,0.029 -0.0104,0.044 -0.0341,0.1397 -0.0639,0.2792 -0.0884,0.4199 l -38.65164,-3.1839 0.0299,8.5572 38.61653,-3.2138 c 0.0675,0.4021 0.1727,0.7969 0.31462,1.1792 l -35.06208,16.5293 4.25389,7.4274 31.88726,-22.0898 c 0.25307,0.3044 0.53719,0.5885 0.85027,0.8463 l -22.10152,31.8496 7.3975,4.3046 16.57354,-35.0803 c 0.37654,0.1391 0.76017,0.2403 1.14668,0.3055 l -3.18652,38.6634 8.55848,-0.03 -3.21511,-38.6374 c 0.0264,-0 0.053,-0.01 0.0793,-0.014 0.0321,-0.01 0.0642,-0.012 0.0962,-0.018 0.0335,-0.01 0.0668,-0.014 0.10011,-0.021 0.29999,-0.063 0.59199,-0.1459 0.87496,-0.2496 l 16.57481,35.0816 7.39621,-4.3046 -22.1015,-31.8496 c 0.30851,-0.2541 0.59265,-0.5371 0.84895,-0.8437 l 31.88727,22.0898 4.25388,-7.4274 -35.05427,-16.5268 c 0.14193,-0.3794 0.24892,-0.7761 0.31722,-1.1856 l 38.63343,3.2151 0.0299,-8.55722 -38.66854,3.18522 c -0.0674,-0.3924 -0.17038,-0.773 -0.30551,-1.1376 l 35.06857,-16.56831 -4.30458,-7.3975 -31.84437,22.0989 c -0.0287,-0.0346 -0.0565,-0.0688 -0.0858,-0.1027 -0.10171,-0.11774 -0.20865,-0.23059 -0.31853,-0.34063 -9.4e-4,-9.5e-4 -0.002,-0.003 -0.003,-0.004 -0.0341,-0.0341 -0.0691,-0.068 -0.104,-0.10142 -0.002,-0.002 -0.005,-0.005 -0.007,-0.007 -0.035,-0.0333 -0.071,-0.0663 -0.10661,-0.0988 -0.002,-0.002 -0.004,-0.005 -0.007,-0.007 -0.0357,-0.0325 -0.0714,-0.0633 -0.10791,-0.0949 -0.002,-0.002 -0.004,-0.005 -0.007,-0.007 -0.0335,-0.0291 -0.0686,-0.0575 -0.1027,-0.0858 l 22.08718,-31.88469 -7.42611,-4.25387 -16.52802,35.05687 c -0.37416,-0.13875 -0.76416,-0.24216 -1.16748,-0.30943 l 3.2151,-38.63342 -8.55848,-0.0299 z" fill="#292930" fill-opacity="1" fill-rule="nonzero" stroke="none"></path></g><desc>Created with Snap</desc><defs></defs></g><g><g transform="matrix(1.024,0,0,-1.024,0,0)"><path d="M453 -5Q334 -5 246 38Q158 82 111 162Q64 242 64 348Q64 495 119 609Q175 723 270 785Q365 848 481 848Q589 848 645 792Q701 737 701 646Q701 585 679 548Q658 511 618 511Q590 511 574 524Q558 537 558 562Q558 571 562 595Q568 625 568 643Q568 734 471 734Q405 734 345 691Q285 648 248 564Q211 481 211 366Q211 246 278 180Q345 115 476 115Q541 115 607 131Q674 148 755 182Q770 188 780 188Q796 188 804 176Q812 164 812 145Q812 84 746 55Q675 24 598 9Q522 -5 453 -5ZM1289 223Q1302 223 1309 211Q1317 199 1317 178Q1317 138 1298 116Q1252 63 1203 29Q1155 -5 1093 -5Q1042 -5 1016 24Q990 54 990 110Q990 138 1004 210Q1017 273 1017 297Q1017 313 1006 313Q993 313 969 279Q945 246 921 191Q897 136 882 75Q863 -5 788 -5Q758 -5 748 16Q739 38 739 94Q739 126 740 145L741 225Q741 379 772 546Q804 713 865 826Q927 940 1013 940Q1059 940 1087 900Q1116 861 1116 798Q1116 697 1057 588Q998 480 865 335Q862 283 862 228Q895 313 935 366Q976 420 1015 443Q1055 466 1088 466Q1153 466 1153 401Q1153 362 1131 260Q1112 173 1112 145Q1112 105 1141 105Q1161 105 1188 129Q1216 154 1262 209Q1274 223 1289 223ZM992 841Q974 841 952 789Q930 738 909 650Q889 563 876 460Q938 533 978 619Q1019 705 1019 775Q1019 807 1012 824Q1005 841 992 841ZM1367 532Q1325 532 1304 551Q1283 571 1283 606Q1283 641 1310 664Q1338 688 1379 688Q1416 688 1439 670Q1462 652 1462 619Q1462 579 1436 555Q1410 532 1367 532ZM1359 -5Q1294 -5 1264 41Q1235 87 1235 163Q1235 208 1246 278Q1258 349 1276 410Q1285 442 1300 454Q1315 466 1348 466Q1399 466 1399 432Q1399 407 1380 316Q1356 206 1356 167Q1356 137 1364 121Q1372 105 1391 105Q1409 105 1436 130Q1463 155 1508 209Q1520 223 1535 223Q1548 223 1555 211Q1563 199 1563 178Q1563 138 1544 116Q1445 -5 1359 -5ZM1673 -5Q1575 -5 1520 50Q1466 106 1466 197Q1466 278 1498 339Q1530 400 1581 433Q1632 466 1688 466Q1743 466 1773 433Q1804 401 1804 350Q1804 308 1785 279Q1767 250 1737 250Q1718 250 1706 259Q1695 268 1695 284Q1695 291 1697 300Q1699 309 1700 313Q1705 328 1705 341Q1705 354 1698 361Q1692 368 1680 368Q1657 368 1637 347Q1617 327 1605 292Q1593 257 1593 215Q1593 99 1694 99Q1735 99 1782 126Q1830 154 1876 209Q1888 223 1903 223Q1916 223 1923 211Q1931 199 1931 178Q1931 140 1912 116Q1865 58 1799 26Q1734 -5 1673 -5ZM2360 307Q2373 307 2380 294Q2387 281 2387 261Q2387 213 2358 204Q2298 183 2226 180Q2207 96 2151 45Q2095 -5 2024 -5Q1964 -5 1921 24Q1879 53 1857 101Q1835 149 1835 205Q1835 281 1864 340Q1893 400 1944 433Q1995 467 2057 467Q2133 467 2179 414Q2226 362 2234 285Q2281 288 2346 305Q2354 307 2360 307ZM2032 101Q2064 101 2087 127Q2111 153 2119 202Q2088 223 2071 257Q2055 291 2055 329Q2055 345 2058 361L2053 361Q2013 361 1986 322Q1960 284 1960 214Q1960 159 1981 130Q2003 101 2032 101ZM2835 223Q2848 223 2855 211Q2863 199 2863 178Q2863 138 2844 116Q2801 63 2751 29Q2702 -5 2639 -5Q2586 -5 2553 33Q2496 -4 2434 -5Q2421 -198 2375 -328Q2329 -457 2240 -457Q2186 -457 2160 -418Q2134 -379 2134 -310Q2134 -212 2179 -82Q2224 49 2318 206Q2318 352 2316 409Q2315 438 2339 455Q2363 472 2399 472Q2420 472 2429 463Q2439 455 2440 430Q2440 405 2441 393Q2473 433 2504 450Q2535 468 2570 468Q2626 468 2661 423Q2697 378 2697 305Q2697 252 2680 202Q2663 152 2633 111Q2654 105 2668 105Q2701 105 2731 129Q2761 153 2808 209Q2820 223 2835 223ZM2439 91Q2475 99 2505 130Q2536 162 2554 208Q2572 255 2572 306Q2572 336 2560 351Q2548 367 2528 367Q2492 367 2441 291Q2440 247 2440 162Q2440 116 2439 91ZM2248 -359Q2275 -359 2293 -242Q2311 -124 2316 51Q2273 -49 2248 -140Q2223 -231 2223 -293Q2223 -325 2230 -342Q2238 -359 2248 -359ZM3228 223Q3241 223 3248 211Q3256 199 3256 178Q3256 138 3237 116Q3200 71 3132 33Q3065 -5 2988 -5Q2883 -5 2825 52Q2767 109 2767 208Q2767 277 2796 336Q2825 396 2876 431Q2928 466 2993 466Q3051 466 3086 431Q3121 397 3121 338Q3121 269 3071 219Q3022 170 2904 141Q2929 95 2999 95Q3044 95 3101 126Q3159 158 3201 209Q3213 223 3228 223ZM2976 368Q2939 368 2913 325Q2888 282 2888 221L2888 219Q2947 233 2981 261Q3015 289 3015 326Q3015 345 3004 356Q2994 368 2976 368ZM3621 223Q3634 223 3641 211Q3649 199 3649 178Q3649 138 3630 116Q3593 71 3525 33Q3458 -5 3381 -5Q3276 -5 3218 52Q3160 109 3160 208Q3160 277 3189 336Q3218 396 3269 431Q3321 466 3386 466Q3444 466 3479 431Q3514 397 3514 338Q3514 269 3464 219Q3415 170 3297 141Q3322 95 3392 95Q3437 95 3494 126Q3552 158 3594 209Q3606 223 3621 223ZM3369 368Q3332 368 3306 325Q3281 282 3281 221L3281 219Q3340 233 3374 261Q3408 289 3408 326Q3408 345 3397 356Q3387 368 3369 368ZM4649 432Q4672 432 4682 422Q4693 412 4693 396Q4693 370 4677 350Q4662 330 4629 329Q4549 327 4487 341Q4416 192 4315 93Q4215 -5 4114 -5Q4010 -5 3959 116Q3908 237 3908 443Q3908 619 3933 759Q3942 811 3958 829Q3975 848 4015 848Q4081 848 4081 791Q4081 785 4079 769Q4049 589 4049 443Q4049 290 4074 210Q4100 131 4151 131Q4203 131 4264 203Q4325 275 4376 384Q4315 422 4284 482Q4253 543 4253 622Q4253 701 4277 755Q4302 810 4344 837Q4387 864 4439 864Q4503 864 4540 818Q4578 772 4578 692Q4578 577 4528 441Q4581 432 4649 432ZM4354 629Q4354 531 4417 484Q4456 596 4456 669Q4456 711 4445 730Q4434 750 4415 750Q4388 750 4371 718Q4354 687 4354 629ZM5042 223Q5055 223 5062 211Q5070 199 5070 178Q5070 138 5051 116Q5014 71 4946 33Q4879 -5 4802 -5Q4697 -5 4639 52Q4581 109 4581 208Q4581 277 4610 336Q4639 396 4690 431Q4742 466 4807 466Q4865 466 4900 431Q4935 397 4935 338Q4935 269 4885 219Q4836 170 4718 141Q4743 95 4813 95Q4858 95 4915 126Q4973 158 5015 209Q5027 223 5042 223ZM4790 368Q4753 368 4727 325Q4702 282 4702 221L4702 219Q4761 233 4795 261Q4829 289 4829 326Q4829 345 4818 356Q4808 368 4790 368ZM5060 -5Q5022 -5 5006 35Q4991 75 4991 163Q4991 293 5028 410Q5037 439 5057 452Q5078 466 5115 466Q5135 466 5143 461Q5151 456 5151 442Q5151 426 5136 370Q5126 330 5120 300Q5114 270 5110 226Q5143 312 5184 366Q5225 420 5264 443Q5304 466 5337 466Q5402 466 5402 401Q5402 362 5380 260Q5361 173 5361 145Q5361 105 5390 105Q5410 105 5437 129Q5465 154 5511 209Q5523 223 5538 223Q5551 223 5558 211Q5566 199 5566 178Q5566 138 5547 116Q5504 63 5454 29Q5405 -5 5342 -5Q5291 -5 5265 24Q5239 54 5239 110Q5239 138 5253 210Q5266 273 5266 297Q5266 313 5255 313Q5242 313 5218 279Q5195 246 5170 191Q5146 136 5131 75Q5120 28 5105 11Q5091 -5 5060 -5ZM6053 223Q6066 223 6073 211Q6081 199 6081 178Q6081 138 6062 116Q6021 66 5972 30Q5923 -5 5875 -5Q5799 -5 5759 84Q5717 31 5685 13Q5654 -5 5612 -5Q5551 -5 5511 40Q5472 86 5472 159Q5472 239 5506 307Q5540 376 5599 419Q5659 463 5733 471Q5752 665 5805 802Q5859 940 5946 940Q5989 940 6017 901Q6046 862 6046 783Q6046 671 5991 521Q5936 371 5844 213Q5848 155 5861 130Q5875 105 5896 105Q5923 105 5951 129Q5979 153 6026 209Q6038 223 6053 223ZM5935 842Q5916 842 5897 774Q5878 707 5864 598Q5851 489 5845 370Q5957 614 5957 762Q5957 800 5950 821Q5944 842 5935 842ZM5647 96Q5666 96 5685 111Q5704 127 5733 169Q5723 223 5723 290Q5723 314 5725 368Q5670 351 5633 294Q5597 238 5597 169Q5597 96 5647 96ZM6131 532Q6089 532 6068 551Q6047 571 6047 606Q6047 641 6074 664Q6102 688 6143 688Q6180 688 6203 670Q6226 652 6226 619Q6226 579 6200 555Q6174 532 6131 532ZM6123 -5Q6058 -5 6028 41Q5999 87 5999 163Q5999 208 6010 278Q6022 349 6040 410Q6049 442 6064 454Q6079 466 6112 466Q6163 466 6163 432Q6163 407 6144 316Q6120 206 6120 167Q6120 137 6128 121Q6136 105 6155 105Q6173 105 6200 130Q6227 155 6272 209Q6284 223 6299 223Q6312 223 6319 211Q6327 199 6327 178Q6327 138 6308 116Q6209 -5 6123 -5ZM6317 -5Q6279 -5 6263 35Q6248 75 6248 163Q6248 293 6285 410Q6294 439 6314 452Q6335 466 6372 466Q6392 466 6400 461Q6408 456 6408 442Q6408 426 6393 370Q6383 330 6377 300Q6371 270 6367 226Q6400 312 6441 366Q6482 420 6521 443Q6561 466 6594 466Q6659 466 6659 401Q6659 362 6637 260Q6618 173 6618 145Q6618 105 6647 105Q6667 105 6694 129Q6722 154 6768 209Q6780 223 6795 223Q6808 223 6815 211Q6823 199 6823 178Q6823 138 6804 116Q6761 63 6711 29Q6662 -5 6599 -5Q6548 -5 6522 24Q6496 54 6496 110Q6496 138 6510 210Q6523 273 6523 297Q6523 313 6512 313Q6499 313 6475 279Q6452 246 6427 191Q6403 136 6388 75Q6377 28 6362 11Q6348 -5 6317 -5ZM7254 221Q7267 221 7274 208Q7282 196 7282 177Q7282 154 7275 141Q7268 128 7253 118Q7167 60 7127 32L7063 -11Q7025 -218 6963 -337Q6902 -455 6807 -455Q6756 -455 6724 -424Q6692 -392 6692 -341Q6692 -270 6748 -189Q6804 -107 6958 12L6964 51Q6947 24 6919 9Q6892 -5 6865 -5Q6803 -5 6766 40Q6729 85 6729 158Q6729 238 6766 309Q6803 381 6864 424Q6926 468 6995 468Q7017 468 7024 459Q7032 451 7037 429Q7056 433 7081 433Q7106 433 7116 425Q7127 418 7127 396Q7127 384 7126 377Q7122 346 7101 220Q7097 196 7092 167Q7088 139 7083 107Q7160 167 7231 213Q7244 221 7254 221ZM6901 96Q6924 96 6945 124Q6966 152 6975 204L7007 375Q6966 374 6931 343Q6896 313 6875 263Q6854 213 6854 157Q6854 126 6866 111Q6879 96 6901 96ZM6818 -358Q6843 -358 6874 -298Q6906 -238 6935 -107Q6858 -173 6824 -226Q6790 -279 6790 -319Q6790 -336 6796 -347Q6803 -358 6818 -358Z" fill="#292929" style=""></path></g></g></g></svg>